<svg xmlns="http://www.w3.org/2000/svg" width="196.27" height="63.857" viewBox="0 0 196.27 63.857">
    <g transform="translate(-70.145 -43.531)">
        <g transform="translate(150.173 48.607)">
            <path d="M171.5,84.413l3.543-31h7.527l3.542,31h-4.427l-.886-6.642h-3.985l-.885,6.642ZM178.8,58.067l-1.549,15.277h3.1Z"
                  transform="translate(-171.498 -52.974)" fill="grey"/>
            <path d="M196.23,53.417h4.428l2.878,11.069,2.656-11.069h4.428l-4.428,15.5,4.428,15.5h-4.428l-2.656-11.07-2.878,11.07H196.23l4.428-15.5Z"
                  transform="translate(-175.213 -52.974)" fill="grey"/>
            <path d="M226.068,53.417v31H221.64v-31Z" transform="translate(-179.03 -52.974)" fill="grey"/>
            <path d="M248.609,59.538v1.107h-4.428V59.538a2.213,2.213,0,1,0-4.427,0v18.6a2.213,2.213,0,1,0,4.427,0V77.028h4.428v1.107q0,6.641-6.641,6.642t-6.642-6.642v-18.6q0-6.642,6.642-6.642T248.609,59.538Z"
                  transform="translate(-181.086 -52.896)" fill="grey"/>
            <path d="M272.715,59.538v18.6q0,6.641-6.641,6.642t-6.642-6.642v-18.6q0-6.642,6.642-6.642T272.715,59.538Zm-6.641-2.214a1.957,1.957,0,0,0-2.214,2.214v18.6a2.213,2.213,0,1,0,4.427,0v-18.6A1.956,1.956,0,0,0,266.074,57.324Z"
                  transform="translate(-184.707 -52.896)" fill="grey"/>
            <path d="M290.18,53.417l3.764,21.254,3.985-21.254h6.643v31h-4.429V63.38l-3.985,21.033h-4.428L287.965,63.38V84.413h-4.428v-31Z"
                  transform="translate(-188.328 -52.974)" fill="grey"/>
            <path d="M172.232,108.621h2.407v.6a1.2,1.2,0,1,0,2.407,0v-.963q0-1.685-2.407-3.369a5.093,5.093,0,0,1-2.407-4.332V99.6q0-3.61,3.61-3.61t3.61,3.61v.6h-2.407v-.6a1.2,1.2,0,1,0-2.407,0v.963q0,1.685,2.407,3.369a5.093,5.093,0,0,1,2.407,4.332v.963q0,3.61-3.61,3.61t-3.61-3.61Z"
                  transform="translate(-171.608 -59.369)" fill="#4dc7e4"/>
            <path d="M185.335,95.987h6.016v2.407h-3.61v4.813h3.008v2.407h-3.008v4.813h3.61v2.407h-6.016Z"
                  transform="translate(-173.577 -59.369)" fill="#4dc7e4"/>
            <path d="M204.241,99.314v.6h-2.407v-.6a1.2,1.2,0,1,0-2.407,0v10.108a1.2,1.2,0,1,0,2.407,0v-.6h2.407v.6q0,3.61-3.61,3.61t-3.61-3.61V99.314q0-3.61,3.61-3.61T204.241,99.314Z"
                  transform="translate(-175.332 -59.327)" fill="#4dc7e4"/>
            <path d="M212.53,109.223a1.2,1.2,0,1,0,2.407,0V95.987h2.407v13.236q0,3.61-3.61,3.61t-3.61-3.61V95.987h2.407Z"
                  transform="translate(-177.3 -59.369)" fill="#4dc7e4"/>
            <path d="M228.038,107.418a1.064,1.064,0,0,0-1.2-1.2h-1.2v6.618h-2.407V95.987h3.61q3.61,0,3.61,3.61v3.008a2.359,2.359,0,0,1-1.8,2.407,2.486,2.486,0,0,1,1.8,2.407v5.415h-2.407Zm-2.407-9.025v5.415h1.2a1.064,1.064,0,0,0,1.2-1.2V99.6a1.064,1.064,0,0,0-1.2-1.2Z"
                  transform="translate(-179.268 -59.369)" fill="#4dc7e4"/>
            <path d="M238.734,95.987v16.846h-2.407V95.987Z" transform="translate(-181.237 -59.369)" fill="#4dc7e4"/>
            <path d="M250.5,98.394h-2.166v14.439H245.93V98.394h-2.166V95.987H250.5Z"
                  transform="translate(-182.354 -59.369)" fill="#4dc7e4"/>
            <path d="M257.986,95.987l1.444,6.618,1.564-6.618H263.4l-2.767,9.626v7.22h-2.407v-7.22l-2.647-9.626Z"
                  transform="translate(-184.129 -59.369)" fill="#4dc7e4"/>
        </g>
        <path d="M96.1,117.989,76.809,106.663l15.2-8.762,19.31,11.311Z" transform="translate(20.546 -19.299)"
              fill="#b9b9b9"/>
        <path d="M0,0" transform="translate(70.145 102.687)" fill="#92d7e7"/>
        <path d="M108.077,33.136l-.163,22.369L92.726,46.725l.141-22.378Z" transform="translate(12.218 19.184)"
              fill="#e5e5e5"/>
        <path d="M36.866,72.661,56.32,61.618l-.011,17.544L36.859,90.229Z" transform="translate(41.447 -0.316)"
              fill="#b9b9b9"/>
        <path d="M36.859,102.347l30.268,17.476,0-17.569L36.866,84.779Z" transform="translate(41.447 -12.433)"
              fill="#fff"/>
        <path d="M132.487,83.271V48.32L117.27,57.1V92.049Z" transform="translate(-0.623 6.642)" fill="#4dc7e4"/>
        <path d="M59.808,24.347,29.54,41.822,44.754,50.61,75.018,33.136Z" transform="translate(45.277 19.184)"
              fill="#fff"/>
    </g>
</svg>